# xmcd
#
# Track frame offsets: 
#        150
#        11005
#        23523
#        35321
#        46787
#        57773
#        69817
#        81626
#        92790
#        104740
#        117282
#        127984
#        138529
#        148847
#        160437
#        169970
#
# Disc length: 2432 seconds
#
# Revision: 0
# Processed by: cddbd v1.5.2PL0 Copyright (c) Steve Scherf et al.
# Submitted via: ExactAudioCopyFreeDBPlugin 1.0
#
DISCID=db097e10
DTITLE=Hank Thompson - Most Of All - CD 1
DYEAR=2008
DGENRE=Country
TTITLE0=Humpty Dumpty Heart
TTITLE1=Yesterday's Mail
TTITLE2=California Women
TTITLE3=The Green Light
TTITLE4=What Are We Gonna Do About The Moonlight
TTITLE5=I Find You Cheatin' On Me
TTITLE6=You Broke My Heart (In Little Bitty Pieces)
TTITLE7=All That Goes Up Must Come Down
TTITLE8=Tomorrow Night
TTITLE9=Soft Lips
TTITLE10=Swing Wide Your Gate Of Love
TTITLE11=Whoa Sailor
TTITLE12=The Grass Looks Greener Over Yonder
TTITLE13=She's A Girl Without Any Sweetheart
TTITLE14=A Cat Has Nine Lives
TTITLE15=Humpty Dumpty Boogie
EXTD=
EXTT0=
EXTT1=
EXTT2=
EXTT3=
EXTT4=
EXTT5=
EXTT6=
EXTT7=
EXTT8=
EXTT9=
EXTT10=
EXTT11=
EXTT12=
EXTT13=
EXTT14=
EXTT15=
PLAYORDER=
